<?xml version="1.0" encoding="UTF-8"?>
<svg width="48" height="48" viewBox="0 0 48 48" fill="none" xmlns="http://www.w3.org/2000/svg">
  <rect width="48" height="48" rx="24" fill="#0052B4"/>
  <path d="M33.9055 16.0945C35.1037 16.0945 36.0945 15.1037 36.0945 13.9055C36.0945 12.7073 35.1037 11.7166 33.9055 11.7166C32.7073 11.7166 31.7166 12.7073 31.7166 13.9055C31.7166 15.1037 32.7073 16.0945 33.9055 16.0945Z" fill="#F5F5F5"/>
  <path d="M31.7167 25.991L31.7167 34.4744C31.7167 35.4392 32.5008 36.2233 33.4656 36.2233C34.4305 36.2233 35.2146 35.4392 35.2146 34.4744L35.2146 25.991C35.2146 25.0262 34.4305 24.2421 33.4656 24.2421C32.5008 24.2421 31.7167 25.0262 31.7167 25.991Z" fill="#F5F5F5"/>
  <path d="M24 11.0002C16.8202 11.0002 11 16.8204 11 24.0002C11 31.18 16.8202 37.0003 24 37.0003C25.7581 37.0003 27.4276 36.6186 28.9318 35.9337C29.2783 35.784 29.4398 35.382 29.2901 35.0355C29.1404 34.689 28.7384 34.5275 28.3919 34.6772C27.0693 35.2644 25.5754 35.5967 24 35.5967C17.5977 35.5967 12.4035 30.4025 12.4035 24.0002C12.4035 17.5979 17.5977 12.4037 24 12.4037C30.4023 12.4037 35.5965 17.5979 35.5965 24.0002C35.5965 24.3834 35.9079 24.6948 36.291 24.6948C36.6742 24.6948 36.9856 24.3834 36.9856 24.0002C36.9856 16.8204 31.1798 11.0002 24 11.0002Z" fill="#F5F5F5"/>
  <path d="M24 16.0944C19.7314 16.0944 16.2779 19.5478 16.2779 23.8165C16.2779 28.0851 19.7314 31.5386 24 31.5386C28.2686 31.5386 31.7221 28.0851 31.7221 23.8165C31.7221 19.5478 28.2686 16.0944 24 16.0944ZM24 30.1214C20.5093 30.1214 17.6814 27.2935 17.6814 23.8027C17.6814 20.312 20.5093 17.4841 24 17.4841C27.4907 17.4841 30.3186 20.312 30.3186 23.8027C30.3186 27.2935 27.4907 30.1214 24 30.1214Z" fill="#F5F5F5"/>
</svg>